<svg xmlns="http://www.w3.org/2000/svg" version="1.1" xmlns:xlink="http://www.w3.org/1999/xlink" xmlns:svgjs="http://svgjs.dev/svgjs" width="1500" height="238" viewBox="0 0 1500 238"><g transform="matrix(1,0,0,1,-0.9090909090909918,0.7057698192101327)"><svg viewBox="0 0 396 63" data-background-color="#ffffff" preserveAspectRatio="xMidYMid meet" height="238" width="1500" xmlns="http://www.w3.org/2000/svg" xmlns:xlink="http://www.w3.org/1999/xlink"><g id="tight-bounds" transform="matrix(1,0,0,1,0.2400000000000091,-0.1868214227320948)"><svg viewBox="0 0 395.52 63.373642845464175" height="63.373642845464175" width="395.52"><g><svg viewBox="0 0 395.52 63.373642845464175" height="63.373642845464175" width="395.52"><g><svg viewBox="0 0 395.52 63.373642845464175" height="63.373642845464175" width="395.52"><g id="textblocktransform"><svg viewBox="0 0 395.52 63.373642845464175" height="63.373642845464175" width="395.52" id="textblock"><g><svg viewBox="0 0 395.52 41.53596721152325" height="41.53596721152325" width="395.52"><g transform="matrix(1,0,0,1,0,0)"><svg width="395.52" viewBox="1.66 -41.19 518.7255095522194 54.199999999999996" height="41.53596721152325" data-palette-color="#8b3c7f"><g transform="matrix(1,0,0,1,0,0)"><g><svg width="24.16367303481294" viewBox="1.99 -36.86 104.63000000000001 37.37" height="8.63134765625" data-palette-color="#8b3c7f" id="scriptelement" x="496.2218365174065" y="-8.63134765625"><path d="M30.26-25.91L22.89-25.91Q22.67-28.05 21.06-29.24 19.44-30.43 16.67-30.43L16.67-30.43Q14.79-30.43 13.49-29.91 12.2-29.39 11.51-28.46 10.83-27.54 10.83-26.37L10.83-26.37Q10.8-25.39 11.25-24.66 11.7-23.93 12.5-23.41 13.3-22.89 14.35-22.51 15.39-22.12 16.58-21.86L16.58-21.86 19.85-21.08Q22.23-20.54 24.22-19.66 26.21-18.77 27.66-17.47 29.12-16.18 29.93-14.42 30.74-12.66 30.75-10.39L30.75-10.39Q30.74-7.05 29.06-4.61 27.38-2.17 24.23-0.83 21.08 0.51 16.64 0.51L16.64 0.51Q12.23 0.51 8.98-0.83 5.72-2.18 3.9-4.84 2.08-7.49 1.99-11.42L1.99-11.42 9.43-11.42Q9.55-9.59 10.48-8.37 11.42-7.16 12.99-6.54 14.56-5.93 16.55-5.93L16.55-5.93Q18.5-5.93 19.95-6.5 21.4-7.07 22.19-8.08 22.99-9.09 22.99-10.4L22.99-10.4Q22.99-11.63 22.27-12.46 21.56-13.3 20.18-13.88 18.8-14.47 16.81-14.95L16.81-14.95 12.86-15.94Q8.26-17.06 5.59-19.44 2.93-21.82 2.95-25.85L2.95-25.85Q2.93-29.15 4.71-31.62 6.5-34.09 9.62-35.48 12.75-36.86 16.73-36.86L16.73-36.86Q20.77-36.86 23.8-35.48 26.83-34.09 28.52-31.62 30.2-29.15 30.26-25.91L30.26-25.91ZM43.59 0L35.9 0 35.9-36.36 43.59-36.36 43.59-21.36 59.19-21.36 59.19-36.36 66.87-36.36 66.87 0 59.19 0 59.19-15.02 43.59-15.02 43.59 0ZM106.62-18.18L106.62-18.18Q106.62-12.23 104.37-8.06 102.13-3.89 98.26-1.7 94.4 0.5 89.59 0.5L89.59 0.5Q84.74 0.5 80.89-1.7 77.04-3.91 74.8-8.08 72.56-12.25 72.56-18.18L72.56-18.18Q72.56-24.13 74.8-28.3 77.04-32.48 80.89-34.67 84.74-36.86 89.59-36.86L89.59-36.86Q94.4-36.86 98.26-34.67 102.13-32.48 104.37-28.3 106.62-24.13 106.62-18.18ZM98.82-18.18L98.82-18.18Q98.82-22.03 97.68-24.68 96.53-27.33 94.46-28.69 92.38-30.06 89.59-30.06L89.59-30.06Q86.8-30.06 84.73-28.69 82.65-27.33 81.5-24.68 80.36-22.03 80.36-18.18L80.36-18.18Q80.36-14.33 81.5-11.68 82.65-9.04 84.73-7.67 86.8-6.3 89.59-6.3L89.59-6.3Q92.38-6.3 94.46-7.67 96.53-9.04 97.68-11.68 98.82-14.33 98.82-18.18Z" opacity="1" transform="matrix(1,0,0,1,0,0)" fill="#8b3c7f" class="undefined-123" data-fill-palette-color="primary" id="yy-123"></path></svg></g></g><g class="wordmark-text-0" data-fill-palette-color="primary" id="text-0"><path d="M27.71-9.01L27.71-9.01Q27.71-7.15 27.17-5.71 26.64-4.27 25.71-3.21 24.78-2.15 23.51-1.43 22.24-0.71 20.79-0.27 19.34 0.17 17.75 0.37 16.16 0.56 14.6 0.56L14.6 0.56Q12.5 0.56 10.89 0.29 9.28 0.02 7.81-0.57 6.35-1.17 4.9-2.12 3.44-3.08 1.66-4.44L1.66-4.44 6.47-8.37Q7.13-7.13 8.22-6.12 9.3-5.1 10.47-4.37 11.65-3.64 12.74-3.25 13.84-2.86 14.53-2.86L14.53-2.86Q15.09-2.86 15.8-2.89 16.5-2.93 17.24-3.04 17.97-3.15 18.68-3.37 19.38-3.59 19.93-3.97 20.48-4.35 20.81-4.92 21.14-5.49 21.14-6.3L21.14-6.3Q21.14-7.13 20.72-7.75 20.29-8.37 19.6-8.84 18.92-9.3 18.04-9.62 17.16-9.94 16.27-10.18 15.38-10.42 14.55-10.61 13.72-10.79 13.11-10.96L13.11-10.96Q11.99-11.28 10.74-11.61 9.5-11.94 8.28-12.37 7.06-12.79 5.94-13.38 4.83-13.96 3.99-14.78 3.15-15.6 2.65-16.71 2.15-17.82 2.15-19.31L2.15-19.31Q2.15-22.05 3.23-23.89 4.32-25.73 6.1-26.84 7.89-27.95 10.16-28.42 12.43-28.88 14.77-28.88L14.77-28.88Q16.38-28.88 18.16-28.55 19.95-28.22 21.63-27.58 23.32-26.93 24.78-26 26.25-25.07 27.22-23.88L27.22-23.88 22.41-19.92Q21.88-21.39 21.01-22.44 20.14-23.49 19.13-24.16 18.12-24.83 17.05-25.15 15.99-25.46 15.09-25.46L15.09-25.46Q14.21-25.46 13.11-25.39 12.01-25.32 11.05-24.98 10.08-24.63 9.41-23.94 8.74-23.24 8.74-22.02L8.74-22.02Q8.74-21.14 9.14-20.52 9.55-19.9 10.21-19.45 10.86-18.99 11.71-18.69 12.55-18.38 13.43-18.15 14.31-17.92 15.14-17.75 15.97-17.58 16.63-17.38L16.63-17.38Q17.75-17.07 19.01-16.74 20.26-16.41 21.48-15.98 22.71-15.55 23.84-14.98 24.98-14.4 25.83-13.57 26.68-12.74 27.2-11.63 27.71-10.52 27.71-9.01ZM61.74-16.16L61.74-16.16Q61.74-13.31 61.04-10.21 60.35-7.1 59.1-4.13 57.86-1.15 56.13 1.48 54.39 4.1 52.32 6.01L52.32 6.01 49.22 4.32Q49.88 3.1 50.46 1.59 51.05 0.07 51.52-1.62 52-3.32 52.38-5.13 52.76-6.93 53.01-8.7 53.27-10.47 53.4-12.15 53.54-13.82 53.54-15.26L53.54-15.26Q53.54-16.21 53.46-17.3 53.39-18.38 53.16-19.47 52.93-20.56 52.54-21.56 52.15-22.56 51.5-23.32 50.85-24.07 49.94-24.54 49.02-25 47.78-25L47.78-25Q46.56-25 45.6-24.45 44.65-23.9 43.92-23.01 43.19-22.12 42.66-20.97 42.14-19.82 41.81-18.62 41.48-17.41 41.33-16.24 41.18-15.06 41.18-14.14L41.18-14.14 41.18 0 32.91 0 32.91-38.57 41.16-38.57 41.16-24.05Q42.75-26.37 45.05-27.62 47.36-28.88 50.17-28.88L50.17-28.88Q53.1-28.88 55.27-27.93 57.44-26.98 58.88-25.28 60.32-23.58 61.03-21.25 61.74-18.92 61.74-16.16ZM96.97-14.16L96.97-14.16Q96.97-11.96 96.38-10.03 95.8-8.11 94.76-6.47 93.72-4.83 92.26-3.53 90.79-2.22 89.05-1.32 87.3-0.42 85.31 0.07 83.32 0.56 81.22 0.56L81.22 0.56Q79.12 0.56 77.14 0.07 75.17-0.42 73.42-1.32 71.67-2.22 70.21-3.53 68.75-4.83 67.71-6.47 66.67-8.11 66.08-10.05 65.5-11.99 65.5-14.16L65.5-14.16Q65.5-16.33 66.08-18.27 66.67-20.21 67.71-21.85 68.75-23.49 70.21-24.79 71.67-26.1 73.42-27 75.17-27.91 77.14-28.39 79.12-28.88 81.22-28.88L81.22-28.88Q83.32-28.88 85.31-28.39 87.3-27.91 89.05-27 90.79-26.1 92.26-24.79 93.72-23.49 94.76-21.85 95.8-20.21 96.38-18.27 96.97-16.33 96.97-14.16ZM88.57-14.16L88.57-14.16Q88.57-15.33 88.43-16.64 88.3-17.94 87.98-19.2 87.67-20.46 87.12-21.62 86.57-22.78 85.76-23.65 84.96-24.51 83.83-25.04 82.71-25.56 81.22-25.56L81.22-25.56Q79.8-25.56 78.71-25.02 77.61-24.49 76.79-23.6 75.97-22.71 75.42-21.53 74.87-20.36 74.53-19.1 74.19-17.85 74.04-16.56 73.9-15.28 73.9-14.16L73.9-14.16Q73.9-13.04 74.04-11.76 74.19-10.47 74.53-9.2 74.87-7.93 75.42-6.77 75.97-5.62 76.79-4.72 77.61-3.83 78.71-3.3 79.8-2.76 81.22-2.76L81.22-2.76Q82.69-2.76 83.81-3.28 84.93-3.81 85.75-4.69 86.57-5.57 87.1-6.71 87.64-7.86 87.97-9.13 88.3-10.4 88.43-11.69 88.57-12.99 88.57-14.16ZM132.15-14.16L132.15-14.16Q132.15-11.08 131.22-8.4 130.29-5.71 128.53-3.72 126.77-1.73 124.24-0.59 121.7 0.56 118.47 0.56L118.47 0.56Q116.01 0.56 113.95-0.4 111.88-1.37 110.42-3.37L110.42-3.37 110.42 13.01 102.17 13.01 102.17-28.2 105.34-28.2 109-22.07Q109.54-23.61 110.48-24.87 111.42-26.12 112.65-27.01 113.88-27.91 115.36-28.39 116.84-28.88 118.47-28.88L118.47-28.88Q121.7-28.88 124.24-27.73 126.77-26.59 128.53-24.6 130.29-22.61 131.22-19.92 132.15-17.24 132.15-14.16ZM123.77-14.16L123.77-14.16Q123.77-15.23 123.66-16.44 123.55-17.65 123.28-18.85 123.01-20.04 122.54-21.14 122.06-22.24 121.33-23.08 120.6-23.93 119.56-24.43 118.52-24.93 117.16-24.93L117.16-24.93Q115.74-24.93 114.7-24.44 113.66-23.95 112.92-23.11 112.18-22.27 111.7-21.18 111.22-20.09 110.95-18.9 110.69-17.7 110.58-16.48 110.47-15.26 110.47-14.16L110.47-14.16Q110.47-13.18 110.61-12 110.76-10.82 111.08-9.62 111.39-8.42 111.91-7.3 112.42-6.18 113.16-5.3 113.91-4.42 114.9-3.89 115.89-3.37 117.16-3.37L117.16-3.37Q118.55-3.37 119.57-3.87 120.6-4.37 121.33-5.21 122.06-6.05 122.54-7.15 123.01-8.25 123.28-9.45 123.55-10.64 123.66-11.87 123.77-13.09 123.77-14.16ZM145.45-3.66L145.45-3.66Q145.45-2.73 145.11-1.92 144.77-1.1 144.16-0.5 143.54 0.1 142.74 0.45 141.93 0.81 141.01 0.81L141.01 0.81Q140.08 0.81 139.27 0.45 138.47 0.1 137.86-0.5 137.25-1.1 136.9-1.92 136.56-2.73 136.56-3.66L136.56-3.66Q136.56-4.57 136.9-5.38 137.25-6.2 137.86-6.8 138.47-7.4 139.27-7.75 140.08-8.11 141.01-8.11L141.01-8.11Q141.93-8.11 142.74-7.75 143.54-7.4 144.16-6.8 144.77-6.2 145.11-5.38 145.45-4.57 145.45-3.66ZM181.24-14.16L181.24-14.16Q181.24-11.96 180.65-10.03 180.07-8.11 179.03-6.47 177.99-4.83 176.53-3.53 175.06-2.22 173.32-1.32 171.57-0.42 169.58 0.07 167.59 0.56 165.49 0.56L165.49 0.56Q163.39 0.56 161.41 0.07 159.44-0.42 157.69-1.32 155.94-2.22 154.48-3.53 153.01-4.83 151.98-6.47 150.94-8.11 150.35-10.05 149.77-11.99 149.77-14.16L149.77-14.16Q149.77-16.33 150.35-18.27 150.94-20.21 151.98-21.85 153.01-23.49 154.48-24.79 155.94-26.1 157.69-27 159.44-27.91 161.41-28.39 163.39-28.88 165.49-28.88L165.49-28.88Q167.59-28.88 169.58-28.39 171.57-27.91 173.32-27 175.06-26.1 176.53-24.79 177.99-23.49 179.03-21.85 180.07-20.21 180.65-18.27 181.24-16.33 181.24-14.16ZM172.84-14.16L172.84-14.16Q172.84-15.33 172.7-16.64 172.57-17.94 172.25-19.2 171.94-20.46 171.39-21.62 170.84-22.78 170.03-23.65 169.23-24.51 168.1-25.04 166.98-25.56 165.49-25.56L165.49-25.56Q164.07-25.56 162.98-25.02 161.88-24.49 161.06-23.6 160.24-22.71 159.69-21.53 159.14-20.36 158.8-19.1 158.46-17.85 158.31-16.56 158.17-15.28 158.17-14.16L158.17-14.16Q158.17-13.04 158.31-11.76 158.46-10.47 158.8-9.2 159.14-7.93 159.69-6.77 160.24-5.62 161.06-4.72 161.88-3.83 162.98-3.3 164.07-2.76 165.49-2.76L165.49-2.76Q166.96-2.76 168.08-3.28 169.2-3.81 170.02-4.69 170.84-5.57 171.37-6.71 171.91-7.86 172.24-9.13 172.57-10.4 172.7-11.69 172.84-12.99 172.84-14.16ZM194.69-32.62L194.69 0 186.44 0 186.44-41.19 189.61-41.19 194.69-32.62ZM200.13-12.06L200.13-12.06Q200.13-13.99 200.46-16.06 200.79-18.14 201.41-20.21 202.03-22.29 202.91-24.32 203.79-26.34 204.89-28.2L204.89-28.2 210.92-28.2Q210.31-26.37 209.83-24.38 209.36-22.39 209.03-20.4 208.7-18.41 208.52-16.5 208.33-14.6 208.33-12.96L208.33-12.96Q208.33-12.01 208.42-10.93 208.5-9.84 208.72-8.75 208.94-7.67 209.35-6.67 209.75-5.66 210.38-4.9 211.02-4.13 211.93-3.67 212.85-3.22 214.09-3.22L214.09-3.22Q215.31-3.22 216.28-3.77 217.24-4.32 217.98-5.21 218.71-6.1 219.22-7.25 219.73-8.4 220.06-9.61 220.39-10.82 220.55-11.98 220.71-13.13 220.71-14.06L220.71-14.06 220.71-28.2 228.96-28.2 228.96 0 225.79 0 222-6.57Q221.3-4.93 220.28-3.6 219.27-2.27 217.98-1.32 216.68-0.37 215.11 0.15 213.53 0.66 211.7 0.66L211.7 0.66Q208.77 0.66 206.6-0.29 204.43-1.25 202.99-2.93 201.55-4.61 200.84-6.95 200.13-9.28 200.13-12.06ZM253.45-17.14L248.78 0 241.36 0 233.65-28.2 241.9-28.2 246.73-8.42 250.76-28.2 258.18-28.2 263.11-7.89 267.88-28.2 273.59-28.2 265.04 0 257.62 0 253.45-17.14ZM306.47-28.2L306.47 0 298.22 0 298.22-3.37Q296.75-1.37 294.69-0.4 292.63 0.56 290.16 0.56L290.16 0.56Q286.94 0.56 284.4-0.59 281.86-1.73 280.1-3.72 278.35-5.71 277.42-8.4 276.49-11.08 276.49-14.16L276.49-14.16Q276.49-17.24 277.42-19.92 278.35-22.61 280.1-24.6 281.86-26.59 284.4-27.73 286.94-28.88 290.16-28.88L290.16-28.88Q291.8-28.88 293.28-28.39 294.75-27.91 295.99-27.01 297.22-26.12 298.16-24.87 299.1-23.61 299.64-22.07L299.64-22.07 303.3-28.2 306.47-28.2ZM298.17-14.16L298.17-14.16Q298.17-15.26 298.06-16.48 297.95-17.7 297.68-18.9 297.41-20.09 296.94-21.18 296.46-22.27 295.72-23.11 294.97-23.95 293.92-24.44 292.87-24.93 291.48-24.93L291.48-24.93Q290.09-24.93 289.06-24.43 288.04-23.93 287.31-23.08 286.57-22.24 286.1-21.14 285.62-20.04 285.35-18.85 285.08-17.65 284.98-16.44 284.87-15.23 284.87-14.16L284.87-14.16Q284.87-13.09 284.98-11.87 285.08-10.64 285.35-9.45 285.62-8.25 286.1-7.15 286.57-6.05 287.31-5.21 288.04-4.37 289.06-3.87 290.09-3.37 291.48-3.37L291.48-3.37Q292.75-3.37 293.74-3.89 294.73-4.42 295.47-5.3 296.22-6.18 296.73-7.3 297.24-8.42 297.56-9.62 297.88-10.82 298.02-12 298.17-13.18 298.17-14.16ZM323.97-24.93L323.97 0 315.7 0 315.7-24.93 310.57-24.93 310.57-28.2 315.7-28.2 315.7-38.57 323.97-38.57 323.97-28.2 332.52-28.2 332.52-24.93 323.97-24.93ZM366.13-14.16L366.13-14.16Q366.13-11.96 365.55-10.03 364.96-8.11 363.93-6.47 362.89-4.83 361.42-3.53 359.96-2.22 358.21-1.32 356.47-0.42 354.48 0.07 352.49 0.56 350.39 0.56L350.39 0.56Q348.29 0.56 346.31 0.07 344.33-0.42 342.59-1.32 340.84-2.22 339.38-3.53 337.91-4.83 336.87-6.47 335.84-8.11 335.25-10.05 334.66-11.99 334.66-14.16L334.66-14.16Q334.66-16.33 335.25-18.27 335.84-20.21 336.87-21.85 337.91-23.49 339.38-24.79 340.84-26.1 342.59-27 344.33-27.91 346.31-28.39 348.29-28.88 350.39-28.88L350.39-28.88Q352.49-28.88 354.48-28.39 356.47-27.91 358.21-27 359.96-26.1 361.42-24.79 362.89-23.49 363.93-21.85 364.96-20.21 365.55-18.27 366.13-16.33 366.13-14.16ZM357.74-14.16L357.74-14.16Q357.74-15.33 357.6-16.64 357.47-17.94 357.15-19.2 356.83-20.46 356.28-21.62 355.73-22.78 354.93-23.65 354.12-24.51 353-25.04 351.88-25.56 350.39-25.56L350.39-25.56Q348.97-25.56 347.87-25.02 346.77-24.49 345.96-23.6 345.14-22.71 344.59-21.53 344.04-20.36 343.7-19.1 343.36-17.85 343.21-16.56 343.06-15.28 343.06-14.16L343.06-14.16Q343.06-13.04 343.21-11.76 343.36-10.47 343.7-9.2 344.04-7.93 344.59-6.77 345.14-5.62 345.96-4.72 346.77-3.83 347.87-3.3 348.97-2.76 350.39-2.76L350.39-2.76Q351.85-2.76 352.98-3.28 354.1-3.81 354.92-4.69 355.73-5.57 356.27-6.71 356.81-7.86 357.14-9.13 357.47-10.4 357.6-11.69 357.74-12.99 357.74-14.16ZM395.6-9.01L395.6-9.01Q395.6-7.15 395.06-5.71 394.53-4.27 393.6-3.21 392.67-2.15 391.4-1.43 390.13-0.71 388.68-0.27 387.23 0.17 385.64 0.37 384.05 0.56 382.49 0.56L382.49 0.56Q380.39 0.56 378.78 0.29 377.17 0.02 375.7-0.57 374.24-1.17 372.78-2.12 371.33-3.08 369.55-4.44L369.55-4.44 374.36-8.37Q375.02-7.13 376.11-6.12 377.19-5.1 378.36-4.37 379.54-3.64 380.63-3.25 381.73-2.86 382.42-2.86L382.42-2.86Q382.98-2.86 383.69-2.89 384.39-2.93 385.13-3.04 385.86-3.15 386.57-3.37 387.27-3.59 387.82-3.97 388.37-4.35 388.7-4.92 389.03-5.49 389.03-6.3L389.03-6.3Q389.03-7.13 388.61-7.75 388.18-8.37 387.49-8.84 386.81-9.3 385.93-9.62 385.05-9.94 384.16-10.18 383.27-10.42 382.44-10.61 381.61-10.79 381-10.96L381-10.96Q379.88-11.28 378.63-11.61 377.39-11.94 376.17-12.37 374.95-12.79 373.83-13.38 372.72-13.96 371.88-14.78 371.04-15.6 370.54-16.71 370.04-17.82 370.04-19.31L370.04-19.31Q370.04-22.05 371.12-23.89 372.21-25.73 373.99-26.84 375.78-27.95 378.05-28.42 380.32-28.88 382.66-28.88L382.66-28.88Q384.27-28.88 386.05-28.55 387.84-28.22 389.52-27.58 391.21-26.93 392.67-26 394.14-25.07 395.11-23.88L395.11-23.88 390.3-19.92Q389.76-21.39 388.9-22.44 388.03-23.49 387.02-24.16 386.01-24.83 384.94-25.15 383.88-25.46 382.98-25.46L382.98-25.46Q382.1-25.46 381-25.39 379.9-25.32 378.94-24.98 377.97-24.63 377.3-23.94 376.63-23.24 376.63-22.02L376.63-22.02Q376.63-21.14 377.03-20.52 377.44-19.9 378.1-19.45 378.75-18.99 379.6-18.69 380.44-18.38 381.32-18.15 382.2-17.92 383.03-17.75 383.86-17.58 384.52-17.38L384.52-17.38Q385.64-17.07 386.9-16.74 388.15-16.41 389.37-15.98 390.6-15.55 391.73-14.98 392.87-14.4 393.72-13.57 394.57-12.74 395.09-11.63 395.6-10.52 395.6-9.01ZM409.46-35.01L409.46-35.01Q409.46-34.08 409.11-33.25 408.76-32.42 408.15-31.81 407.54-31.2 406.71-30.85 405.88-30.49 404.95-30.49L404.95-30.49Q404.02-30.49 403.2-30.85 402.38-31.2 401.77-31.81 401.16-32.42 400.81-33.25 400.46-34.08 400.46-35.01L400.46-35.01Q400.46-35.94 400.81-36.76 401.16-37.57 401.77-38.18 402.38-38.79 403.2-39.15 404.02-39.5 404.95-39.5L404.95-39.5Q405.88-39.5 406.71-39.15 407.54-38.79 408.15-38.18 408.76-37.57 409.11-36.76 409.46-35.94 409.46-35.01ZM409.1-28.17L409.1 0 400.82 0 400.82-28.17 409.1-28.17ZM444.84-16.16L444.84-16.16Q444.84-13.31 444.14-10.21 443.45-7.1 442.2-4.13 440.96-1.15 439.22 1.48 437.49 4.1 435.41 6.01L435.41 6.01 432.31 4.32Q432.97 3.1 433.56 1.59 434.14 0.07 434.62-1.62 435.1-3.32 435.48-5.13 435.85-6.93 436.11-8.7 436.37-10.47 436.5-12.15 436.63-13.82 436.63-15.26L436.63-15.26Q436.63-16.21 436.56-17.3 436.49-18.38 436.26-19.47 436.02-20.56 435.63-21.56 435.24-22.56 434.6-23.32 433.95-24.07 433.03-24.54 432.12-25 430.87-25L430.87-25Q429.65-25 428.7-24.45 427.75-23.9 427.02-23.01 426.28-22.12 425.76-20.97 425.23-19.82 424.9-18.62 424.57-17.41 424.43-16.24 424.28-15.06 424.28-14.14L424.28-14.14 424.28 0 416.01 0 416.01-28.2 419.18-28.2 422.96-21.63Q423.65-23.27 424.67-24.61 425.7-25.95 426.99-26.9 428.29-27.86 429.86-28.37 431.43-28.88 433.27-28.88L433.27-28.88Q436.2-28.88 438.37-27.93 440.54-26.98 441.98-25.28 443.42-23.58 444.13-21.25 444.84-18.92 444.84-16.16ZM484.14-17.63L484.14-17.63Q484.14-14.4 483.41-11.8 482.68-9.2 481.4-7.17 480.11-5.13 478.4-3.64 476.7-2.15 474.74-1.18 472.79-0.22 470.69 0.24 468.59 0.71 466.54 0.71L466.54 0.71Q464.46 0.71 462.36 0.21 460.27-0.29 458.34-1.31 456.41-2.32 454.74-3.83 453.06-5.35 451.83-7.39 450.6-9.42 449.89-11.99 449.18-14.55 449.18-17.63L449.18-17.63Q449.18-20.87 449.9-23.49 450.62-26.1 451.87-28.15 453.11-30.2 454.8-31.68 456.48-33.15 458.41-34.11 460.34-35.06 462.41-35.52 464.49-35.99 466.54-35.99L466.54-35.99Q468.74-35.99 470.91-35.52 473.08-35.06 475.04-34.11 476.99-33.15 478.66-31.68 480.33-30.2 481.54-28.15 482.75-26.1 483.45-23.49 484.14-20.87 484.14-17.63ZM474.52-17.63L474.52-17.63Q474.52-19.24 474.36-20.92 474.21-22.61 473.85-24.19 473.5-25.78 472.9-27.17 472.3-28.56 471.41-29.6 470.52-30.64 469.31-31.24 468.1-31.84 466.54-31.84L466.54-31.84Q465.1-31.84 463.96-31.24 462.83-30.64 461.96-29.61 461.1-28.59 460.5-27.2 459.9-25.81 459.52-24.23 459.14-22.66 458.97-20.96 458.8-19.26 458.8-17.63L458.8-17.63Q458.8-16.02 458.97-14.33 459.14-12.65 459.52-11.07 459.9-9.5 460.5-8.11 461.1-6.71 461.96-5.68 462.83-4.64 463.96-4.03 465.1-3.42 466.54-3.42L466.54-3.42Q467.91-3.42 469.04-4.04 470.18-4.66 471.07-5.73 471.96-6.79 472.61-8.19 473.25-9.59 473.68-11.17 474.11-12.74 474.32-14.4 474.52-16.06 474.52-17.63Z" fill="#8b3c7f" data-fill-palette-color="primary"></path></g></svg></g></svg></g><g transform="matrix(1,0,0,1,0,51.34161220695081)"><svg viewBox="0 0 232.209792 12.03203063851336" height="12.03203063851336" width="232.209792"><g transform="matrix(1,0,0,1,0,0)"><svg width="232.209792" viewBox="-0.05 -42.94 1079.84 55.949999999999996" height="12.03203063851336" data-palette-color="#8b3c7f"><path d="M25.68-35.16L32.52-35.16 21.14-14.77 21.14 0 11.45 0 11.45-14.23-0.05-35.16 9.84-35.16 17.48-17.48 25.68-35.16ZM62.6-14.16L62.6-14.16Q62.6-11.96 62.01-10.03 61.42-8.11 60.39-6.47 59.35-4.83 57.88-3.53 56.42-2.22 54.67-1.32 52.93-0.42 50.94 0.07 48.95 0.56 46.85 0.56L46.85 0.56Q44.75 0.56 42.77 0.07 40.79-0.42 39.05-1.32 37.3-2.22 35.84-3.53 34.37-4.83 33.33-6.47 32.3-8.11 31.71-10.05 31.13-11.99 31.13-14.16L31.13-14.16Q31.13-16.33 31.71-18.27 32.3-20.21 33.33-21.85 34.37-23.49 35.84-24.79 37.3-26.1 39.05-27 40.79-27.91 42.77-28.39 44.75-28.88 46.85-28.88L46.85-28.88Q48.95-28.88 50.94-28.39 52.93-27.91 54.67-27 56.42-26.1 57.88-24.79 59.35-23.49 60.39-21.85 61.42-20.21 62.01-18.27 62.6-16.33 62.6-14.16ZM54.2-14.16L54.2-14.16Q54.2-15.33 54.06-16.64 53.93-17.94 53.61-19.2 53.29-20.46 52.74-21.62 52.19-22.78 51.39-23.65 50.58-24.51 49.46-25.04 48.34-25.56 46.85-25.56L46.85-25.56Q45.43-25.56 44.33-25.02 43.23-24.49 42.42-23.6 41.6-22.71 41.05-21.53 40.5-20.36 40.16-19.1 39.82-17.85 39.67-16.56 39.52-15.28 39.52-14.16L39.52-14.16Q39.52-13.04 39.67-11.76 39.82-10.47 40.16-9.2 40.5-7.93 41.05-6.77 41.6-5.62 42.42-4.72 43.23-3.83 44.33-3.3 45.43-2.76 46.85-2.76L46.85-2.76Q48.31-2.76 49.44-3.28 50.56-3.81 51.38-4.69 52.19-5.57 52.73-6.71 53.27-7.86 53.6-9.13 53.93-10.4 54.06-11.69 54.2-12.99 54.2-14.16ZM66.35-12.06L66.35-12.06Q66.35-13.99 66.68-16.06 67.01-18.14 67.63-20.21 68.26-22.29 69.14-24.32 70.01-26.34 71.11-28.2L71.11-28.2 77.14-28.2Q76.53-26.37 76.06-24.38 75.58-22.39 75.25-20.4 74.92-18.41 74.74-16.5 74.56-14.6 74.56-12.96L74.56-12.96Q74.56-12.01 74.64-10.93 74.73-9.84 74.95-8.75 75.17-7.67 75.57-6.67 75.97-5.66 76.61-4.9 77.24-4.13 78.16-3.67 79.07-3.22 80.32-3.22L80.32-3.22Q81.54-3.22 82.5-3.77 83.47-4.32 84.2-5.21 84.93-6.1 85.44-7.25 85.96-8.4 86.29-9.61 86.62-10.82 86.77-11.98 86.93-13.13 86.93-14.06L86.93-14.06 86.93-28.2 95.19-28.2 95.19 0 92.01 0 88.23-6.57Q87.52-4.93 86.51-3.6 85.49-2.27 84.2-1.32 82.91-0.37 81.33 0.15 79.76 0.66 77.92 0.66L77.92 0.66Q75 0.66 72.82-0.29 70.65-1.25 69.21-2.93 67.77-4.61 67.06-6.95 66.35-9.28 66.35-12.06ZM126.04-25.71L126.04-25.71 121.4-18.02Q121.11-18.99 120.65-20.21 120.18-21.44 119.5-22.5 118.82-23.56 117.86-24.28 116.91-25 115.67-25L115.67-25Q114.52-25 113.68-24.41 112.83-23.83 112.25-22.89 111.66-21.95 111.28-20.76 110.91-19.58 110.7-18.37 110.49-17.16 110.42-16.05 110.34-14.94 110.34-14.14L110.34-14.14 110.34 0 102.07 0 102.07-28.2 105.24-28.2 108.59-21.63Q109.27-23.22 110.15-24.55 111.03-25.88 112.18-26.84 113.32-27.81 114.78-28.34 116.23-28.88 118.06-28.88L118.06-28.88Q119.01-28.88 120.18-28.72 121.35-28.56 122.48-28.19 123.6-27.81 124.55-27.2 125.51-26.59 126.04-25.71ZM173.43-14.16L173.43-14.16Q173.43-11.96 172.84-10.03 172.25-8.11 171.22-6.47 170.18-4.83 168.71-3.53 167.25-2.22 165.5-1.32 163.76-0.42 161.77 0.07 159.78 0.56 157.68 0.56L157.68 0.56Q155.58 0.56 153.6 0.07 151.62-0.42 149.88-1.32 148.13-2.22 146.67-3.53 145.2-4.83 144.16-6.47 143.13-8.11 142.54-10.05 141.96-11.99 141.96-14.16L141.96-14.16Q141.96-16.33 142.54-18.27 143.13-20.21 144.16-21.85 145.2-23.49 146.67-24.79 148.13-26.1 149.88-27 151.62-27.91 153.6-28.39 155.58-28.88 157.68-28.88L157.68-28.88Q159.78-28.88 161.77-28.39 163.76-27.91 165.5-27 167.25-26.1 168.71-24.79 170.18-23.49 171.22-21.85 172.25-20.21 172.84-18.27 173.43-16.33 173.43-14.16ZM165.03-14.16L165.03-14.16Q165.03-15.33 164.89-16.64 164.76-17.94 164.44-19.2 164.12-20.46 163.57-21.62 163.02-22.78 162.22-23.65 161.41-24.51 160.29-25.04 159.17-25.56 157.68-25.56L157.68-25.56Q156.26-25.56 155.16-25.02 154.06-24.49 153.25-23.6 152.43-22.71 151.88-21.53 151.33-20.36 150.99-19.1 150.65-17.85 150.5-16.56 150.35-15.28 150.35-14.16L150.35-14.16Q150.35-13.04 150.5-11.76 150.65-10.47 150.99-9.2 151.33-7.93 151.88-6.77 152.43-5.62 153.25-4.72 154.06-3.83 155.16-3.3 156.26-2.76 157.68-2.76L157.68-2.76Q159.14-2.76 160.27-3.28 161.39-3.81 162.21-4.69 163.02-5.57 163.56-6.71 164.1-7.86 164.43-9.13 164.76-10.4 164.89-11.69 165.03-12.99 165.03-14.16ZM207.46-16.16L207.46-16.16Q207.46-13.31 206.76-10.21 206.06-7.1 204.82-4.13 203.57-1.15 201.84 1.48 200.11 4.1 198.03 6.01L198.03 6.01 194.93 4.32Q195.59 3.1 196.18 1.59 196.76 0.07 197.24-1.62 197.71-3.32 198.09-5.13 198.47-6.93 198.73-8.7 198.98-10.47 199.12-12.15 199.25-13.82 199.25-15.26L199.25-15.26Q199.25-16.21 199.18-17.3 199.11-18.38 198.87-19.47 198.64-20.56 198.25-21.56 197.86-22.56 197.21-23.32 196.57-24.07 195.65-24.54 194.74-25 193.49-25L193.49-25Q192.27-25 191.32-24.45 190.37-23.9 189.63-23.01 188.9-22.12 188.38-20.97 187.85-19.82 187.52-18.62 187.19-17.41 187.05-16.24 186.9-15.06 186.9-14.14L186.9-14.14 186.9 0 178.62 0 178.62-28.2 181.8-28.2 185.58-21.63Q186.26-23.27 187.29-24.61 188.32-25.95 189.61-26.9 190.9-27.86 192.48-28.37 194.05-28.88 195.88-28.88L195.88-28.88Q198.81-28.88 200.99-27.93 203.16-26.98 204.6-25.28 206.04-23.58 206.75-21.25 207.46-18.92 207.46-16.16ZM219.68-13.38L219.68-13.38Q221.2-13.04 222.71-12.84 224.23-12.65 225.76-12.65L225.76-12.65Q227.38-12.65 228.75-12.95 230.13-13.26 231.15-13.98 232.16-14.7 232.75-15.89 233.33-17.09 233.33-18.87L233.33-18.87Q233.33-20.31 232.94-21.51 232.55-22.71 231.78-23.56 231.01-24.41 229.89-24.89 228.77-25.37 227.28-25.37L227.28-25.37Q225.89-25.37 224.77-24.85 223.66-24.34 222.82-23.47 221.98-22.61 221.38-21.46 220.78-20.31 220.39-19.07 220-17.82 219.83-16.55 219.66-15.28 219.66-14.16L219.66-14.16Q219.66-13.96 219.66-13.77 219.66-13.57 219.68-13.38ZM240.02-18.95L240.02-18.95Q240.02-17.21 239.46-15.86 238.9-14.5 237.93-13.48 236.97-12.45 235.7-11.74 234.43-11.04 232.99-10.58 231.55-10.13 230.02-9.94 228.5-9.74 227.06-9.74L227.06-9.74Q225.23-9.74 223.44-10 221.66-10.25 219.93-10.82L219.93-10.82Q220.2-9.2 220.78-7.75 221.37-6.3 222.35-5.21 223.32-4.13 224.75-3.49 226.18-2.86 228.13-2.86L228.13-2.86Q229.43-2.86 230.6-3.25 231.77-3.64 232.75-4.35 233.72-5.05 234.47-6.03 235.21-7.01 235.68-8.2L235.68-8.2 239.24-6.88Q238.43-4.96 237.03-3.55 235.63-2.15 233.86-1.23 232.09-0.32 230.1 0.12 228.11 0.56 226.15 0.56L226.15 0.56Q222.93 0.56 220.2-0.52 217.46-1.61 215.49-3.56 213.51-5.52 212.38-8.23 211.26-10.94 211.26-14.16L211.26-14.16Q211.26-17.38 212.38-20.09 213.51-22.8 215.49-24.76 217.46-26.71 220.2-27.8 222.93-28.88 226.15-28.88L226.15-28.88Q227.72-28.88 229.35-28.66 230.99-28.44 232.53-27.97 234.06-27.49 235.43-26.73 236.8-25.98 237.81-24.87 238.83-23.75 239.42-22.29 240.02-20.83 240.02-18.95ZM283.6-9.01L283.6-9.01Q283.6-7.15 283.06-5.71 282.52-4.27 281.59-3.21 280.67-2.15 279.4-1.43 278.13-0.71 276.67-0.27 275.22 0.17 273.63 0.37 272.05 0.56 270.49 0.56L270.49 0.56Q268.39 0.56 266.77 0.29 265.16 0.02 263.7-0.57 262.23-1.17 260.78-2.12 259.33-3.08 257.55-4.44L257.55-4.44 262.36-8.37Q263.01-7.13 264.1-6.12 265.19-5.1 266.36-4.37 267.53-3.64 268.63-3.25 269.73-2.86 270.41-2.86L270.41-2.86Q270.97-2.86 271.68-2.89 272.39-2.93 273.12-3.04 273.85-3.15 274.56-3.37 275.27-3.59 275.82-3.97 276.37-4.35 276.7-4.92 277.03-5.49 277.03-6.3L277.03-6.3Q277.03-7.13 276.6-7.75 276.17-8.37 275.49-8.84 274.81-9.3 273.93-9.62 273.05-9.94 272.16-10.18 271.27-10.42 270.44-10.61 269.61-10.79 269-10.96L269-10.96Q267.87-11.28 266.63-11.61 265.38-11.94 264.16-12.37 262.94-12.79 261.83-13.38 260.72-13.96 259.88-14.78 259.04-15.6 258.53-16.71 258.03-17.82 258.03-19.31L258.03-19.31Q258.03-22.05 259.12-23.89 260.21-25.73 261.99-26.84 263.77-27.95 266.04-28.42 268.31-28.88 270.66-28.88L270.66-28.88Q272.27-28.88 274.05-28.55 275.83-28.22 277.52-27.58 279.2-26.93 280.67-26 282.13-25.07 283.11-23.88L283.11-23.88 278.3-19.92Q277.76-21.39 276.89-22.44 276.03-23.49 275.01-24.16 274-24.83 272.94-25.15 271.88-25.46 270.97-25.46L270.97-25.46Q270.09-25.46 269-25.39 267.9-25.32 266.93-24.98 265.97-24.63 265.3-23.94 264.63-23.24 264.63-22.02L264.63-22.02Q264.63-21.14 265.03-20.52 265.43-19.9 266.09-19.45 266.75-18.99 267.59-18.69 268.43-18.38 269.31-18.15 270.19-17.92 271.02-17.75 271.85-17.58 272.51-17.38L272.51-17.38Q273.63-17.07 274.89-16.74 276.15-16.41 277.37-15.98 278.59-15.55 279.73-14.98 280.86-14.4 281.72-13.57 282.57-12.74 283.08-11.63 283.6-10.52 283.6-9.01ZM299.41-24.93L299.41 0 291.14 0 291.14-24.93 286.01-24.93 286.01-28.2 291.14-28.2 291.14-38.57 299.41-38.57 299.41-28.2 307.96-28.2 307.96-24.93 299.41-24.93ZM340.33-14.16L340.33-14.16Q340.33-11.96 339.74-10.03 339.16-8.11 338.12-6.47 337.08-4.83 335.62-3.53 334.15-2.22 332.41-1.32 330.66-0.42 328.67 0.07 326.68 0.56 324.58 0.56L324.58 0.56Q322.48 0.56 320.5 0.07 318.53-0.42 316.78-1.32 315.04-2.22 313.57-3.53 312.11-4.83 311.07-6.47 310.03-8.11 309.45-10.05 308.86-11.99 308.86-14.16L308.86-14.16Q308.86-16.33 309.45-18.27 310.03-20.21 311.07-21.85 312.11-23.49 313.57-24.79 315.04-26.1 316.78-27 318.53-27.91 320.5-28.39 322.48-28.88 324.58-28.88L324.58-28.88Q326.68-28.88 328.67-28.39 330.66-27.91 332.41-27 334.15-26.1 335.62-24.79 337.08-23.49 338.12-21.85 339.16-20.21 339.74-18.27 340.33-16.33 340.33-14.16ZM331.93-14.16L331.93-14.16Q331.93-15.33 331.8-16.64 331.66-17.94 331.34-19.2 331.03-20.46 330.48-21.62 329.93-22.78 329.12-23.65 328.32-24.51 327.19-25.04 326.07-25.56 324.58-25.56L324.58-25.56Q323.17-25.56 322.07-25.02 320.97-24.49 320.15-23.6 319.33-22.71 318.78-21.53 318.23-20.36 317.89-19.1 317.55-17.85 317.4-16.56 317.26-15.28 317.26-14.16L317.26-14.16Q317.26-13.04 317.4-11.76 317.55-10.47 317.89-9.2 318.23-7.93 318.78-6.77 319.33-5.62 320.15-4.72 320.97-3.83 322.07-3.3 323.17-2.76 324.58-2.76L324.58-2.76Q326.05-2.76 327.17-3.28 328.29-3.81 329.11-4.69 329.93-5.57 330.47-6.71 331-7.86 331.33-9.13 331.66-10.4 331.8-11.69 331.93-12.99 331.93-14.16ZM375.51-14.16L375.51-14.16Q375.51-11.08 374.58-8.4 373.65-5.71 371.89-3.72 370.14-1.73 367.6-0.59 365.06 0.56 361.84 0.56L361.84 0.56Q359.37 0.56 357.31-0.4 355.24-1.37 353.78-3.37L353.78-3.37 353.78 13.01 345.53 13.01 345.53-28.2 348.7-28.2 352.36-22.07Q352.9-23.61 353.84-24.87 354.78-26.12 356.01-27.01 357.25-27.91 358.72-28.39 360.2-28.88 361.84-28.88L361.84-28.88Q365.06-28.88 367.6-27.73 370.14-26.59 371.89-24.6 373.65-22.61 374.58-19.92 375.51-17.24 375.51-14.16ZM367.13-14.16L367.13-14.16Q367.13-15.23 367.02-16.44 366.91-17.65 366.64-18.85 366.38-20.04 365.9-21.14 365.42-22.24 364.69-23.08 363.96-23.93 362.92-24.43 361.88-24.93 360.52-24.93L360.52-24.93Q359.1-24.93 358.06-24.44 357.03-23.95 356.28-23.11 355.54-22.27 355.06-21.18 354.58-20.09 354.32-18.9 354.05-17.7 353.94-16.48 353.83-15.26 353.83-14.16L353.83-14.16Q353.83-13.18 353.97-12 354.12-10.82 354.44-9.62 354.76-8.42 355.27-7.3 355.78-6.18 356.53-5.3 357.27-4.42 358.26-3.89 359.25-3.37 360.52-3.37L360.52-3.37Q361.91-3.37 362.93-3.87 363.96-4.37 364.69-5.21 365.42-6.05 365.9-7.15 366.38-8.25 366.64-9.45 366.91-10.64 367.02-11.87 367.13-13.09 367.13-14.16ZM419.23-9.01L419.23-9.01Q419.23-7.15 418.69-5.71 418.15-4.27 417.23-3.21 416.3-2.15 415.03-1.43 413.76-0.71 412.31-0.27 410.85 0.17 409.27 0.37 407.68 0.56 406.12 0.56L406.12 0.56Q404.02 0.56 402.41 0.29 400.8 0.02 399.33-0.57 397.87-1.17 396.41-2.12 394.96-3.08 393.18-4.44L393.18-4.44 397.99-8.37Q398.65-7.13 399.73-6.12 400.82-5.1 401.99-4.37 403.16-3.64 404.26-3.25 405.36-2.86 406.04-2.86L406.04-2.86Q406.61-2.86 407.31-2.89 408.02-2.93 408.75-3.04 409.49-3.15 410.19-3.37 410.9-3.59 411.45-3.97 412-4.35 412.33-4.92 412.66-5.49 412.66-6.3L412.66-6.3Q412.66-7.13 412.23-7.75 411.81-8.37 411.12-8.84 410.44-9.3 409.56-9.62 408.68-9.94 407.79-10.18 406.9-10.42 406.07-10.61 405.24-10.79 404.63-10.96L404.63-10.96Q403.51-11.28 402.26-11.61 401.01-11.94 399.79-12.37 398.57-12.79 397.46-13.38 396.35-13.96 395.51-14.78 394.67-15.6 394.17-16.71 393.67-17.82 393.67-19.31L393.67-19.31Q393.67-22.05 394.75-23.89 395.84-25.73 397.62-26.84 399.4-27.95 401.67-28.42 403.94-28.88 406.29-28.88L406.29-28.88Q407.9-28.88 409.68-28.55 411.46-28.22 413.15-27.58 414.83-26.93 416.3-26 417.76-25.07 418.74-23.88L418.74-23.88 413.93-19.92Q413.39-21.39 412.53-22.44 411.66-23.49 410.65-24.16 409.63-24.83 408.57-25.15 407.51-25.46 406.61-25.46L406.61-25.46Q405.73-25.46 404.63-25.39 403.53-25.32 402.57-24.98 401.6-24.63 400.93-23.94 400.26-23.24 400.26-22.02L400.26-22.02Q400.26-21.14 400.66-20.52 401.06-19.9 401.72-19.45 402.38-18.99 403.22-18.69 404.07-18.38 404.95-18.15 405.82-17.92 406.65-17.75 407.48-17.58 408.14-17.38L408.14-17.38Q409.27-17.07 410.52-16.74 411.78-16.41 413-15.98 414.22-15.55 415.36-14.98 416.49-14.4 417.35-13.57 418.2-12.74 418.72-11.63 419.23-10.52 419.23-9.01ZM453.26-16.16L453.26-16.16Q453.26-13.31 452.56-10.21 451.87-7.1 450.62-4.13 449.38-1.15 447.64 1.48 445.91 4.1 443.83 6.01L443.83 6.01 440.73 4.32Q441.39 3.1 441.98 1.59 442.57 0.07 443.04-1.62 443.52-3.32 443.9-5.13 444.27-6.93 444.53-8.7 444.79-10.47 444.92-12.15 445.06-13.82 445.06-15.26L445.06-15.26Q445.06-16.21 444.98-17.3 444.91-18.38 444.68-19.47 444.44-20.56 444.05-21.56 443.66-22.56 443.02-23.32 442.37-24.07 441.45-24.54 440.54-25 439.29-25L439.29-25Q438.07-25 437.12-24.45 436.17-23.9 435.44-23.01 434.7-22.12 434.18-20.97 433.65-19.82 433.32-18.62 432.99-17.41 432.85-16.24 432.7-15.06 432.7-14.14L432.7-14.14 432.7 0 424.43 0 424.43-38.57 432.68-38.57 432.68-24.05Q434.26-26.37 436.57-27.62 438.88-28.88 441.69-28.88L441.69-28.88Q444.62-28.88 446.79-27.93 448.96-26.98 450.4-25.28 451.84-23.58 452.55-21.25 453.26-18.92 453.26-16.16ZM488.49-14.16L488.49-14.16Q488.49-11.96 487.9-10.03 487.31-8.11 486.28-6.47 485.24-4.83 483.77-3.53 482.31-2.22 480.56-1.32 478.82-0.42 476.83 0.07 474.84 0.56 472.74 0.56L472.74 0.56Q470.64 0.56 468.66 0.07 466.68-0.42 464.94-1.32 463.19-2.22 461.73-3.53 460.26-4.83 459.23-6.47 458.19-8.11 457.6-10.05 457.02-11.99 457.02-14.16L457.02-14.16Q457.02-16.33 457.6-18.27 458.19-20.21 459.23-21.85 460.26-23.49 461.73-24.79 463.19-26.1 464.94-27 466.68-27.91 468.66-28.39 470.64-28.88 472.74-28.88L472.74-28.88Q474.84-28.88 476.83-28.39 478.82-27.91 480.56-27 482.31-26.1 483.77-24.79 485.24-23.49 486.28-21.85 487.31-20.21 487.9-18.27 488.49-16.33 488.49-14.16ZM480.09-14.16L480.09-14.16Q480.09-15.33 479.95-16.64 479.82-17.94 479.5-19.2 479.18-20.46 478.63-21.62 478.09-22.78 477.28-23.65 476.47-24.51 475.35-25.04 474.23-25.56 472.74-25.56L472.74-25.56Q471.32-25.56 470.22-25.02 469.13-24.49 468.31-23.6 467.49-22.71 466.94-21.53 466.39-20.36 466.05-19.1 465.71-17.85 465.56-16.56 465.41-15.28 465.41-14.16L465.41-14.16Q465.41-13.04 465.56-11.76 465.71-10.47 466.05-9.2 466.39-7.93 466.94-6.77 467.49-5.62 468.31-4.72 469.13-3.83 470.22-3.3 471.32-2.76 472.74-2.76L472.74-2.76Q474.2-2.76 475.33-3.28 476.45-3.81 477.27-4.69 478.09-5.57 478.62-6.71 479.16-7.86 479.49-9.13 479.82-10.4 479.95-11.69 480.09-12.99 480.09-14.16ZM523.66-14.16L523.66-14.16Q523.66-11.08 522.74-8.4 521.81-5.71 520.05-3.72 518.29-1.73 515.75-0.59 513.21 0.56 509.99 0.56L509.99 0.56Q507.53 0.56 505.46-0.4 503.4-1.37 501.94-3.37L501.94-3.37 501.94 13.01 493.68 13.01 493.68-28.2 496.86-28.2 500.52-22.07Q501.06-23.61 502-24.87 502.94-26.12 504.17-27.01 505.4-27.91 506.88-28.39 508.36-28.88 509.99-28.88L509.99-28.88Q513.21-28.88 515.75-27.73 518.29-26.59 520.05-24.6 521.81-22.61 522.74-19.92 523.66-17.24 523.66-14.16ZM515.29-14.16L515.29-14.16Q515.29-15.23 515.18-16.44 515.07-17.65 514.8-18.85 514.53-20.04 514.06-21.14 513.58-22.24 512.85-23.08 512.12-23.93 511.08-24.43 510.04-24.93 508.67-24.93L508.67-24.93Q507.26-24.93 506.22-24.44 505.18-23.95 504.44-23.11 503.69-22.27 503.22-21.18 502.74-20.09 502.47-18.9 502.2-17.7 502.09-16.48 501.98-15.26 501.98-14.16L501.98-14.16Q501.98-13.18 502.13-12 502.28-10.82 502.59-9.62 502.91-8.42 503.42-7.3 503.94-6.18 504.68-5.3 505.43-4.42 506.42-3.89 507.4-3.37 508.67-3.37L508.67-3.37Q510.06-3.37 511.09-3.87 512.12-4.37 512.85-5.21 513.58-6.05 514.06-7.15 514.53-8.25 514.8-9.45 515.07-10.64 515.18-11.87 515.29-13.09 515.29-14.16ZM553.74-24.93L553.74 0 545.46 0 545.46-24.93 540.33-24.93 540.33-28.2 545.46-28.2 545.46-38.57 553.74-38.57 553.74-28.2 562.28-28.2 562.28-24.93 553.74-24.93ZM594.65-14.16L594.65-14.16Q594.65-11.96 594.07-10.03 593.48-8.11 592.44-6.47 591.41-4.83 589.94-3.53 588.48-2.22 586.73-1.32 584.98-0.42 582.99 0.07 581 0.56 578.91 0.56L578.91 0.56Q576.81 0.56 574.83 0.07 572.85-0.42 571.1-1.32 569.36-2.22 567.89-3.53 566.43-4.83 565.39-6.47 564.35-8.11 563.77-10.05 563.18-11.99 563.18-14.16L563.18-14.16Q563.18-16.33 563.77-18.27 564.35-20.21 565.39-21.85 566.43-23.49 567.89-24.79 569.36-26.1 571.1-27 572.85-27.91 574.83-28.39 576.81-28.88 578.91-28.88L578.91-28.88Q581-28.88 582.99-28.39 584.98-27.91 586.73-27 588.48-26.1 589.94-24.79 591.41-23.49 592.44-21.85 593.48-20.21 594.07-18.27 594.65-16.33 594.65-14.16ZM586.25-14.16L586.25-14.16Q586.25-15.33 586.12-16.64 585.99-17.94 585.67-19.2 585.35-20.46 584.8-21.62 584.25-22.78 583.45-23.65 582.64-24.51 581.52-25.04 580.39-25.56 578.91-25.56L578.91-25.56Q577.49-25.56 576.39-25.02 575.29-24.49 574.47-23.6 573.66-22.71 573.11-21.53 572.56-20.36 572.22-19.1 571.87-17.85 571.73-16.56 571.58-15.28 571.58-14.16L571.58-14.16Q571.58-13.04 571.73-11.76 571.87-10.47 572.22-9.2 572.56-7.93 573.11-6.77 573.66-5.62 574.47-4.72 575.29-3.83 576.39-3.3 577.49-2.76 578.91-2.76L578.91-2.76Q580.37-2.76 581.49-3.28 582.62-3.81 583.43-4.69 584.25-5.57 584.79-6.71 585.33-7.86 585.66-9.13 585.99-10.4 586.12-11.69 586.25-12.99 586.25-14.16ZM642.4-28.2L642.4 0 634.15 0 634.15-3.37Q632.68-1.37 630.62-0.4 628.56 0.56 626.09 0.56L626.09 0.56Q622.87 0.56 620.33-0.59 617.79-1.73 616.03-3.72 614.28-5.71 613.35-8.4 612.42-11.08 612.42-14.16L612.42-14.16Q612.42-17.24 613.35-19.92 614.28-22.61 616.03-24.6 617.79-26.59 620.33-27.73 622.87-28.88 626.09-28.88L626.09-28.88Q627.73-28.88 629.21-28.39 630.68-27.91 631.92-27.01 633.15-26.12 634.09-24.87 635.03-23.61 635.57-22.07L635.57-22.07 639.23-28.2 642.4-28.2ZM634.1-14.16L634.1-14.16Q634.1-15.26 633.99-16.48 633.88-17.7 633.61-18.9 633.34-20.09 632.87-21.18 632.39-22.27 631.65-23.11 630.9-23.95 629.85-24.44 628.8-24.93 627.41-24.93L627.41-24.93Q626.02-24.93 624.99-24.43 623.97-23.93 623.24-23.08 622.5-22.24 622.03-21.14 621.55-20.04 621.28-18.85 621.01-17.65 620.9-16.44 620.79-15.23 620.79-14.16L620.79-14.16Q620.79-13.09 620.9-11.87 621.01-10.64 621.28-9.45 621.55-8.25 622.03-7.15 622.5-6.05 623.24-5.21 623.97-4.37 624.99-3.87 626.02-3.37 627.41-3.37L627.41-3.37Q628.68-3.37 629.67-3.89 630.66-4.42 631.4-5.3 632.15-6.18 632.66-7.3 633.17-8.42 633.49-9.62 633.81-10.82 633.95-12 634.1-13.18 634.1-14.16ZM657.54-32.62L657.54 0 649.28 0 649.28-41.19 652.46-41.19 657.54-32.62ZM672.67-32.62L672.67 0 664.42 0 664.42-41.19 667.59-41.19 672.67-32.62ZM704.33-24.93L704.33 0 696.05 0 696.05-24.93 690.93-24.93 690.93-28.2 696.05-28.2 696.05-38.57 704.33-38.57 704.33-28.2 712.87-28.2 712.87-24.93 704.33-24.93ZM745.54-16.16L745.54-16.16Q745.54-13.31 744.84-10.21 744.15-7.1 742.9-4.13 741.66-1.15 739.92 1.48 738.19 4.1 736.11 6.01L736.11 6.01 733.01 4.32Q733.67 3.1 734.26 1.59 734.84 0.07 735.32-1.62 735.8-3.32 736.18-5.13 736.55-6.93 736.81-8.7 737.07-10.47 737.2-12.15 737.33-13.82 737.33-15.26L737.33-15.26Q737.33-16.21 737.26-17.3 737.19-18.38 736.96-19.47 736.72-20.56 736.33-21.56 735.94-22.56 735.3-23.32 734.65-24.07 733.73-24.54 732.82-25 731.57-25L731.57-25Q730.35-25 729.4-24.45 728.45-23.9 727.72-23.01 726.98-22.12 726.46-20.97 725.93-19.82 725.6-18.62 725.27-17.41 725.13-16.24 724.98-15.06 724.98-14.14L724.98-14.14 724.98 0 716.7 0 716.7-38.57 724.96-38.57 724.96-24.05Q726.54-26.37 728.85-27.62 731.16-28.88 733.97-28.88L733.97-28.88Q736.9-28.88 739.07-27.93 741.24-26.98 742.68-25.28 744.12-23.58 744.83-21.25 745.54-18.92 745.54-16.16ZM759.65-35.01L759.65-35.01Q759.65-34.08 759.29-33.25 758.94-32.42 758.33-31.81 757.72-31.2 756.89-30.85 756.06-30.49 755.13-30.49L755.13-30.49Q754.2-30.49 753.38-30.85 752.57-31.2 751.96-31.81 751.35-32.42 750.99-33.25 750.64-34.08 750.64-35.01L750.64-35.01Q750.64-35.94 750.99-36.76 751.35-37.57 751.96-38.18 752.57-38.79 753.38-39.15 754.2-39.5 755.13-39.5L755.13-39.5Q756.06-39.5 756.89-39.15 757.72-38.79 758.33-38.18 758.94-37.57 759.29-36.76 759.65-35.94 759.65-35.01ZM759.28-28.17L759.28 0 751 0 751-28.17 759.28-28.17ZM795.02-16.16L795.02-16.16Q795.02-13.31 794.32-10.21 793.63-7.1 792.38-4.13 791.14-1.15 789.41 1.48 787.67 4.1 785.6 6.01L785.6 6.01 782.5 4.32Q783.16 3.1 783.74 1.59 784.33 0.07 784.8-1.62 785.28-3.32 785.66-5.13 786.04-6.93 786.29-8.7 786.55-10.47 786.68-12.15 786.82-13.82 786.82-15.26L786.82-15.26Q786.82-16.21 786.74-17.3 786.67-18.38 786.44-19.47 786.21-20.56 785.82-21.56 785.43-22.56 784.78-23.32 784.13-24.07 783.22-24.54 782.3-25 781.06-25L781.06-25Q779.83-25 778.88-24.45 777.93-23.9 777.2-23.01 776.47-22.12 775.94-20.97 775.42-19.82 775.09-18.62 774.76-17.41 774.61-16.24 774.46-15.06 774.46-14.14L774.46-14.14 774.46 0 766.19 0 766.19-28.2 769.36-28.2 773.15-21.63Q773.83-23.27 774.85-24.61 775.88-25.95 777.17-26.9 778.47-27.86 780.04-28.37 781.62-28.88 783.45-28.88L783.45-28.88Q786.38-28.88 788.55-27.93 790.72-26.98 792.16-25.28 793.6-23.58 794.31-21.25 795.02-18.92 795.02-16.16ZM828.86-28.2L828.86-3.39Q828.86-0.02 827.85 2.95 826.85 5.93 824.95 8.17 823.05 10.4 820.27 11.71 817.5 13.01 813.96 13.01L813.96 13.01Q812.01 13.01 810.02 12.57 808.03 12.13 806.26 11.22 804.49 10.3 803.09 8.9 801.68 7.5 800.88 5.59L800.88 5.59 804.44 4.25Q804.91 5.44 805.65 6.45 806.39 7.45 807.37 8.17 808.35 8.89 809.52 9.29 810.69 9.69 811.99 9.69L811.99 9.69Q814.43 9.69 816.07 8.69 817.72 7.69 818.72 6.08 819.72 4.47 820.16 2.43 820.6 0.39 820.6-1.71L820.6-1.71 820.6-3.37Q819.14-1.37 817.08-0.4 815.01 0.56 812.55 0.56L812.55 0.56Q809.32 0.56 806.79-0.59 804.25-1.73 802.49-3.72 800.73-5.71 799.8-8.4 798.88-11.08 798.88-14.16L798.88-14.16Q798.88-17.24 799.8-19.92 800.73-22.61 802.49-24.6 804.25-26.59 806.79-27.73 809.32-28.88 812.55-28.88L812.55-28.88Q814.18-28.88 815.66-28.39 817.14-27.91 818.37-27.01 819.6-26.12 820.54-24.87 821.48-23.61 822.02-22.07L822.02-22.07 825.68-28.2 828.86-28.2ZM820.55-14.16L820.55-14.16Q820.55-15.26 820.45-16.48 820.34-17.7 820.07-18.9 819.8-20.09 819.32-21.18 818.85-22.27 818.1-23.11 817.36-23.95 816.31-24.44 815.26-24.93 813.87-24.93L813.87-24.93Q812.47-24.93 811.45-24.43 810.42-23.93 809.69-23.08 808.96-22.24 808.48-21.14 808.01-20.04 807.74-18.85 807.47-17.65 807.36-16.44 807.25-15.23 807.25-14.16L807.25-14.16Q807.25-13.09 807.36-11.87 807.47-10.64 807.74-9.45 808.01-8.25 808.48-7.15 808.96-6.05 809.69-5.21 810.42-4.37 811.45-3.87 812.47-3.37 813.87-3.37L813.87-3.37Q815.13-3.37 816.12-3.89 817.11-4.42 817.86-5.3 818.6-6.18 819.11-7.3 819.63-8.42 819.94-9.62 820.26-10.82 820.41-12 820.55-13.18 820.55-14.16ZM860.01-9.01L860.01-9.01Q860.01-7.15 859.47-5.71 858.93-4.27 858-3.21 857.08-2.15 855.81-1.43 854.54-0.71 853.08-0.27 851.63 0.17 850.04 0.37 848.46 0.56 846.9 0.56L846.9 0.56Q844.8 0.56 843.18 0.29 841.57 0.02 840.11-0.57 838.64-1.17 837.19-2.12 835.74-3.08 833.96-4.44L833.96-4.44 838.77-8.37Q839.42-7.13 840.51-6.12 841.6-5.1 842.77-4.37 843.94-3.64 845.04-3.25 846.14-2.86 846.82-2.86L846.82-2.86Q847.38-2.86 848.09-2.89 848.8-2.93 849.53-3.04 850.26-3.15 850.97-3.37 851.68-3.59 852.23-3.97 852.78-4.35 853.11-4.92 853.44-5.49 853.44-6.3L853.44-6.3Q853.44-7.13 853.01-7.75 852.58-8.37 851.9-8.84 851.22-9.3 850.34-9.62 849.46-9.94 848.57-10.18 847.68-10.42 846.85-10.61 846.02-10.79 845.41-10.96L845.41-10.96Q844.28-11.28 843.04-11.61 841.79-11.94 840.57-12.37 839.35-12.79 838.24-13.38 837.13-13.96 836.29-14.78 835.44-15.6 834.94-16.71 834.44-17.82 834.44-19.31L834.44-19.31Q834.44-22.05 835.53-23.89 836.62-25.73 838.4-26.84 840.18-27.95 842.45-28.42 844.72-28.88 847.07-28.88L847.07-28.88Q848.68-28.88 850.46-28.55 852.24-28.22 853.93-27.58 855.61-26.93 857.08-26 858.54-25.07 859.52-23.88L859.52-23.88 854.71-19.92Q854.17-21.39 853.3-22.44 852.44-23.49 851.42-24.16 850.41-24.83 849.35-25.15 848.29-25.46 847.38-25.46L847.38-25.46Q846.5-25.46 845.41-25.39 844.31-25.32 843.34-24.98 842.38-24.63 841.71-23.94 841.04-23.24 841.04-22.02L841.04-22.02Q841.04-21.14 841.44-20.52 841.84-19.9 842.5-19.45 843.16-18.99 844-18.69 844.84-18.38 845.72-18.15 846.6-17.92 847.43-17.75 848.26-17.58 848.92-17.38L848.92-17.38Q850.04-17.07 851.3-16.74 852.56-16.41 853.78-15.98 855-15.55 856.14-14.98 857.27-14.4 858.13-13.57 858.98-12.74 859.49-11.63 860.01-10.52 860.01-9.01ZM905.7-39.79L905.7-39.79 901.04-32.08Q900.97-33.01 900.7-34.22 900.43-35.42 899.81-36.5 899.19-37.57 898.1-38.32 897.01-39.06 895.33-39.06L895.33-39.06Q893.59-39.06 892.54-38.38 891.49-37.7 890.93-36.33 890.37-34.96 890.18-32.93 889.98-30.91 889.98-28.22L889.98-28.22 898.53-28.22 898.53-24.95 889.98-24.95 889.98 0 881.7 0 881.7-24.95 876.58-24.95 876.58-28.22 881.7-28.22Q881.7-32.1 882.53-34.89 883.36-37.67 885.05-39.47 886.73-41.26 889.29-42.1 891.84-42.94 895.25-42.94L895.25-42.94Q897.31-42.94 898.93-42.66 900.55-42.38 901.81-41.93 903.07-41.48 904.02-40.92 904.97-40.36 905.7-39.79ZM930.14-28.2L930.14 0 921.89 0 921.89-3.37Q920.42-1.37 918.36-0.4 916.3 0.56 913.83 0.56L913.83 0.56Q910.61 0.56 908.07-0.59 905.53-1.73 903.77-3.72 902.01-5.71 901.09-8.4 900.16-11.08 900.16-14.16L900.16-14.16Q900.16-17.24 901.09-19.92 902.01-22.61 903.77-24.6 905.53-26.59 908.07-27.73 910.61-28.88 913.83-28.88L913.83-28.88Q915.47-28.88 916.94-28.39 918.42-27.91 919.65-27.01 920.89-26.12 921.83-24.87 922.77-23.61 923.3-22.07L923.3-22.07 926.97-28.2 930.14-28.2ZM921.84-14.16L921.84-14.16Q921.84-15.26 921.73-16.48 921.62-17.7 921.35-18.9 921.08-20.09 920.61-21.18 920.13-22.27 919.39-23.11 918.64-23.95 917.59-24.44 916.54-24.93 915.15-24.93L915.15-24.93Q913.76-24.93 912.73-24.43 911.71-23.93 910.97-23.08 910.24-22.24 909.77-21.14 909.29-20.04 909.02-18.85 908.75-17.65 908.64-16.44 908.53-15.23 908.53-14.16L908.53-14.16Q908.53-13.09 908.64-11.87 908.75-10.64 909.02-9.45 909.29-8.25 909.77-7.15 910.24-6.05 910.97-5.21 911.71-4.37 912.73-3.87 913.76-3.37 915.15-3.37L915.15-3.37Q916.42-3.37 917.41-3.89 918.4-4.42 919.14-5.3 919.89-6.18 920.4-7.3 920.91-8.42 921.23-9.62 921.55-10.82 921.69-12 921.84-13.18 921.84-14.16ZM961.29-9.01L961.29-9.01Q961.29-7.15 960.75-5.71 960.22-4.27 959.29-3.21 958.36-2.15 957.09-1.43 955.82-0.71 954.37-0.27 952.92 0.17 951.33 0.37 949.74 0.56 948.18 0.56L948.18 0.56Q946.08 0.56 944.47 0.29 942.86 0.02 941.39-0.57 939.93-1.17 938.47-2.12 937.02-3.08 935.24-4.44L935.24-4.44 940.05-8.37Q940.71-7.13 941.79-6.12 942.88-5.1 944.05-4.37 945.22-3.64 946.32-3.25 947.42-2.86 948.11-2.86L948.11-2.86Q948.67-2.86 949.38-2.89 950.08-2.93 950.82-3.04 951.55-3.15 952.26-3.37 952.96-3.59 953.51-3.97 954.06-4.35 954.39-4.92 954.72-5.49 954.72-6.3L954.72-6.3Q954.72-7.13 954.29-7.75 953.87-8.37 953.18-8.84 952.5-9.3 951.62-9.62 950.74-9.94 949.85-10.18 948.96-10.42 948.13-10.61 947.3-10.79 946.69-10.96L946.69-10.96Q945.57-11.28 944.32-11.61 943.08-11.94 941.86-12.37 940.64-12.79 939.52-13.38 938.41-13.96 937.57-14.78 936.73-15.6 936.23-16.71 935.73-17.82 935.73-19.31L935.73-19.31Q935.73-22.05 936.81-23.89 937.9-25.73 939.68-26.84 941.47-27.95 943.74-28.42 946.01-28.88 948.35-28.88L948.35-28.88Q949.96-28.88 951.74-28.55 953.53-28.22 955.21-27.58 956.89-26.93 958.36-26 959.82-25.07 960.8-23.88L960.8-23.88 955.99-19.92Q955.45-21.39 954.59-22.44 953.72-23.49 952.71-24.16 951.69-24.83 950.63-25.15 949.57-25.46 948.67-25.46L948.67-25.46Q947.79-25.46 946.69-25.39 945.59-25.32 944.63-24.98 943.66-24.63 942.99-23.94 942.32-23.24 942.32-22.02L942.32-22.02Q942.32-21.14 942.72-20.52 943.13-19.9 943.78-19.45 944.44-18.99 945.29-18.69 946.13-18.38 947.01-18.15 947.89-17.92 948.72-17.75 949.55-17.58 950.21-17.38L950.21-17.38Q951.33-17.07 952.59-16.74 953.84-16.41 955.06-15.98 956.28-15.55 957.42-14.98 958.56-14.4 959.41-13.57 960.26-12.74 960.78-11.63 961.29-10.52 961.29-9.01ZM995.32-16.16L995.32-16.16Q995.32-13.31 994.62-10.21 993.93-7.1 992.68-4.13 991.44-1.15 989.7 1.48 987.97 4.1 985.9 6.01L985.9 6.01 982.8 4.32Q983.45 3.1 984.04 1.59 984.63 0.07 985.1-1.62 985.58-3.32 985.96-5.13 986.34-6.93 986.59-8.7 986.85-10.47 986.98-12.15 987.12-13.82 987.12-15.26L987.12-15.26Q987.12-16.21 987.04-17.3 986.97-18.38 986.74-19.47 986.51-20.56 986.12-21.56 985.73-22.56 985.08-23.32 984.43-24.07 983.52-24.54 982.6-25 981.36-25L981.36-25Q980.13-25 979.18-24.45 978.23-23.9 977.5-23.01 976.77-22.12 976.24-20.97 975.72-19.82 975.39-18.62 975.06-17.41 974.91-16.24 974.76-15.06 974.76-14.14L974.76-14.14 974.76 0 966.49 0 966.49-38.57 974.74-38.57 974.74-24.05Q976.33-26.37 978.63-27.62 980.94-28.88 983.75-28.88L983.75-28.88Q986.68-28.88 988.85-27.93 991.02-26.98 992.46-25.28 993.9-23.58 994.61-21.25 995.32-18.92 995.32-16.16ZM1009.43-35.01L1009.43-35.01Q1009.43-34.08 1009.07-33.25 1008.72-32.42 1008.11-31.81 1007.5-31.2 1006.67-30.85 1005.84-30.49 1004.91-30.49L1004.91-30.49Q1003.98-30.49 1003.17-30.85 1002.35-31.2 1001.74-31.81 1001.13-32.42 1000.77-33.25 1000.42-34.08 1000.42-35.01L1000.42-35.01Q1000.42-35.94 1000.77-36.76 1001.13-37.57 1001.74-38.18 1002.35-38.79 1003.17-39.15 1003.98-39.5 1004.91-39.5L1004.91-39.5Q1005.84-39.5 1006.67-39.15 1007.5-38.79 1008.11-38.18 1008.72-37.57 1009.07-36.76 1009.43-35.94 1009.43-35.01ZM1009.06-28.17L1009.06 0 1000.79 0 1000.79-28.17 1009.06-28.17ZM1045.75-14.16L1045.75-14.16Q1045.75-11.96 1045.17-10.03 1044.58-8.11 1043.55-6.47 1042.51-4.83 1041.04-3.53 1039.58-2.22 1037.83-1.32 1036.09-0.42 1034.1 0.07 1032.11 0.56 1030.01 0.56L1030.01 0.56Q1027.91 0.56 1025.93 0.07 1023.95-0.42 1022.21-1.32 1020.46-2.22 1019-3.53 1017.53-4.83 1016.49-6.47 1015.46-8.11 1014.87-10.05 1014.28-11.99 1014.28-14.16L1014.28-14.16Q1014.28-16.33 1014.87-18.27 1015.46-20.21 1016.49-21.85 1017.53-23.49 1019-24.79 1020.46-26.1 1022.21-27 1023.95-27.91 1025.93-28.39 1027.91-28.88 1030.01-28.88L1030.01-28.88Q1032.11-28.88 1034.1-28.39 1036.09-27.91 1037.83-27 1039.58-26.1 1041.04-24.79 1042.51-23.49 1043.55-21.85 1044.58-20.21 1045.17-18.27 1045.75-16.33 1045.75-14.16ZM1037.36-14.16L1037.36-14.16Q1037.36-15.33 1037.22-16.64 1037.09-17.94 1036.77-19.2 1036.45-20.46 1035.9-21.62 1035.35-22.78 1034.55-23.65 1033.74-24.51 1032.62-25.04 1031.5-25.56 1030.01-25.56L1030.01-25.56Q1028.59-25.56 1027.49-25.02 1026.39-24.49 1025.58-23.6 1024.76-22.71 1024.21-21.53 1023.66-20.36 1023.32-19.1 1022.98-17.85 1022.83-16.56 1022.68-15.28 1022.68-14.16L1022.68-14.16Q1022.68-13.04 1022.83-11.76 1022.98-10.47 1023.32-9.2 1023.66-7.93 1024.21-6.77 1024.76-5.62 1025.58-4.72 1026.39-3.83 1027.49-3.3 1028.59-2.76 1030.01-2.76L1030.01-2.76Q1031.47-2.76 1032.6-3.28 1033.72-3.81 1034.54-4.69 1035.35-5.57 1035.89-6.71 1036.43-7.86 1036.76-9.13 1037.09-10.4 1037.22-11.69 1037.36-12.99 1037.36-14.16ZM1079.79-16.16L1079.79-16.16Q1079.79-13.31 1079.09-10.21 1078.39-7.1 1077.15-4.13 1075.9-1.15 1074.17 1.48 1072.44 4.1 1070.36 6.01L1070.36 6.01 1067.26 4.32Q1067.92 3.1 1068.51 1.59 1069.09 0.07 1069.57-1.62 1070.04-3.32 1070.42-5.13 1070.8-6.93 1071.06-8.7 1071.31-10.47 1071.45-12.15 1071.58-13.82 1071.58-15.26L1071.58-15.26Q1071.58-16.21 1071.51-17.3 1071.44-18.38 1071.2-19.47 1070.97-20.56 1070.58-21.56 1070.19-22.56 1069.54-23.32 1068.9-24.07 1067.98-24.54 1067.07-25 1065.82-25L1065.82-25Q1064.6-25 1063.65-24.45 1062.7-23.9 1061.96-23.01 1061.23-22.12 1060.71-20.97 1060.18-19.82 1059.85-18.62 1059.52-17.41 1059.38-16.24 1059.23-15.06 1059.23-14.14L1059.23-14.14 1059.23 0 1050.95 0 1050.95-28.2 1054.13-28.2 1057.91-21.63Q1058.59-23.27 1059.62-24.61 1060.64-25.95 1061.94-26.9 1063.23-27.86 1064.81-28.37 1066.38-28.88 1068.21-28.88L1068.21-28.88Q1071.14-28.88 1073.32-27.93 1075.49-26.98 1076.93-25.28 1078.37-23.58 1079.08-21.25 1079.79-18.92 1079.79-16.16Z" opacity="1" transform="matrix(1,0,0,1,0,0)" fill="#8b3c7f" class="slogan-text-1" data-fill-palette-color="secondary" id="text-1"></path></svg></g></svg></g></svg></g></svg></g></svg></g><defs></defs></svg><rect width="395.52" height="63.373642845464175" fill="none" stroke="none" visibility="hidden"></rect></g></svg></g></svg>